<svg width="32" height="29" viewBox="0 0 32 29" fill="none" xmlns="http://www.w3.org/2000/svg">
<path fill-rule="evenodd" clip-rule="evenodd" d="M26.6472 0H23.5122H4.70244C3.45528 0 2.25919 0.495435 1.37731 1.37731C0.495435 2.25919 0 3.45528 0 4.70244V23.5122C0 24.7594 0.495435 25.9555 1.37731 26.8373C2.25919 27.7192 3.45528 28.2146 4.70244 28.2146H26.6472C27.8943 28.2146 29.0904 27.7192 29.9723 26.8373C30.8542 25.9555 31.3496 24.7594 31.3496 23.5122V4.70244C31.3496 3.45528 30.8542 2.25919 29.9723 1.37731C29.0904 0.495435 27.8943 0 26.6472 0ZM27.7555 24.6206C28.0495 24.3266 28.2146 23.9279 28.2146 23.5122V9.40488H3.13496V23.5122C3.13496 23.9279 3.30011 24.3266 3.59407 24.6206C3.88803 24.9145 4.28672 25.0797 4.70244 25.0797H26.6472C27.0629 25.0797 27.4616 24.9145 27.7555 24.6206Z" fill="white"/>
<rect x="7.83789" y="14.1074" width="1.56748" height="1.56748" fill="white"/>
<rect x="4.70215" y="14.1074" width="1.56748" height="1.56748" fill="white"/>
<rect x="7.83789" y="17.2422" width="1.56748" height="1.56748" fill="white"/>
<rect x="4.70215" y="17.2422" width="1.56748" height="1.56748" fill="white"/>
<rect x="7.83789" y="20.3774" width="1.56748" height="1.56748" fill="white"/>
<rect x="4.70215" y="20.3774" width="1.56748" height="1.56748" fill="white"/>
<rect x="10.9717" y="10.9722" width="1.56748" height="1.56748" fill="white"/>
<rect x="10.9717" y="14.1074" width="1.56748" height="1.56748" fill="white"/>
<rect x="10.9717" y="17.2422" width="1.56748" height="1.56748" fill="white"/>
<rect x="10.9717" y="20.3774" width="1.56748" height="1.56748" fill="white"/>
<rect x="14.1074" y="10.9722" width="1.56748" height="1.56748" fill="white"/>
<rect x="14.1074" y="14.1074" width="1.56748" height="1.56748" fill="white"/>
<rect x="14.1074" y="17.2422" width="1.56748" height="1.56748" fill="white"/>
<rect x="14.1074" y="20.3774" width="1.56748" height="1.56748" fill="white"/>
<rect x="17.2432" y="10.9722" width="1.56748" height="1.56748" fill="white"/>
<rect x="17.2432" y="14.1074" width="1.56748" height="1.56748" fill="white"/>
<rect x="17.2432" y="17.2422" width="1.56748" height="1.56748" fill="white"/>
<rect x="17.2432" y="20.3774" width="1.56748" height="1.56748" fill="white"/>
<rect x="20.377" y="10.9722" width="1.56748" height="1.56748" fill="white"/>
<rect x="20.377" y="14.1074" width="1.56748" height="1.56748" fill="white"/>
<rect x="20.377" y="17.2422" width="1.56748" height="1.56748" fill="white"/>
<rect x="23.5127" y="10.9722" width="1.56748" height="1.56748" fill="white"/>
<rect x="23.5127" y="14.1074" width="1.56748" height="1.56748" fill="white"/>
<rect x="23.5127" y="17.2422" width="1.56748" height="1.56748" fill="white"/>
</svg>
