<svg width="230" height="248" viewBox="0 0 230 248" fill="none" xmlns="http://www.w3.org/2000/svg">
<path d="M51.4336 151.123C48.3967 157.526 46.139 160.392 41.4336 164.623C24.0483 158.621 24.4574 162.654 32.4338 175.123C26.896 177.48 29.1466 180.641 41.4336 189.123C44.0944 195.249 47.6425 198.058 55.4338 202.623C55.3649 206.947 56.3975 208.025 58.9338 207.456C59.6457 207.296 60.4761 207.007 61.4338 206.623C63.2075 211.297 64.5798 211.608 67.9338 206.623C68.6948 210.199 69.618 211.669 70.9338 211.532C72.2768 211.392 74.0285 209.579 76.4338 206.623C76.8314 208.525 75.8708 209.335 73.4338 210.623C90.2652 215.55 103.8 215.758 123.434 211.623C124.806 211.042 126.139 210.467 127.434 209.895C135.452 206.355 142.02 202.936 147.434 199.023C158.704 190.879 164.977 180.596 168.934 162.623C169.178 158.48 169.359 154.679 169.394 151.123C169.555 135.085 166.757 124.036 153.434 109.123C152.378 107.892 151.556 106.783 150.934 105.681C149.454 103.061 149.105 100.485 149.434 96.4265C148.166 96.2407 146.824 95.9707 145.434 95.6231C133.927 91.4805 128.912 87.4463 123.434 76.1231C122.193 73.1927 122.061 71.5742 123.434 70.6136C124.083 70.1594 125.069 69.8523 126.434 69.6231C131.771 68.8382 133.808 67.3684 135.934 63.1231C139.711 56.6039 142.412 54.4467 150.934 60.1231C155.339 62.8043 158.738 62.3374 165.934 59.1231C166.209 51.3874 165.605 46.6171 161.934 36.6231C121.639 34.4848 101.19 41.3998 66.9338 62.123C66.8587 74.2211 68.8177 80.5954 76.4338 91.1231C79.9122 96.1904 81.0649 98.9475 77.4338 103.265C64.9836 92.1137 51.4254 87.9527 34.9338 105.123C35.1049 104.434 35.2553 103.77 35.3869 103.123C19.1543 108.063 11.8466 107.144 1.43362 100.123C-0.382042 117.447 1.40822 124.016 6.93362 133.123C17.4423 145.342 25.4271 150.612 51.4336 151.123Z" fill="#FEEED8"/>
<path d="M150.934 105.681C151.556 106.783 152.378 107.892 153.434 109.123C166.757 124.036 169.555 135.085 169.394 151.123C188.999 152.288 198.752 150.155 212.934 139.123C223.479 128.775 227.56 121.219 227.934 101.123C213.271 108.151 205.633 107.784 192.934 100.123C192.434 102.123 192.174 102.698 192.934 104.623C185.878 98.5561 181.422 96.4856 172.434 95.6231C161.519 95.632 157.18 98.4079 150.934 105.681Z" fill="#FEEED8"/>
<path d="M191.434 82.6231C196.299 82.4523 197.104 83.3073 195.934 86.1231C207.531 90.8919 214.233 89.9326 226.434 83.6231C225.776 78.3037 224.436 75.2104 221.434 69.6231C217.007 60.8367 213.276 57.2428 204.934 52.6231C197.354 49.4743 193.446 50.3945 186.934 55.6231C180.657 61.6084 180.1 65.5944 183.434 73.6231C182.63 79.7606 183.817 82.1078 191.434 82.6231Z" fill="#FEEED8"/>
<path d="M108.934 13.1231C85.1656 17.9827 78.0849 25.4367 69.9338 42.1231C101.19 25.7846 119.02 21.3157 151.434 21.6231C141.96 12.7889 136.466 10.9215 126.434 11.6231C129.797 6.71822 130.145 4.31597 125.934 1.12309C122.745 -0.226502 121.131 2.00571 118.434 9.12309C116.298 2.33692 114.232 0.526969 108.934 1.12309C102.592 3.51871 102.423 6.08533 108.934 13.1231Z" fill="#FEEED8"/>
<path d="M29.4336 55.123C18.4817 59.5575 13.9633 66.4726 6.93362 81.623C15.7129 91.0337 22.4458 91.4212 35.9338 88.1231L37.9336 83.623C40.0558 82.3597 40.9176 81.5484 40.9338 79.6231C43.7831 79.6009 45.4292 78.6804 48.4336 75.623C52.6472 73.1833 53.2152 70.4149 49.9336 62.123C43.4454 53.8196 38.9849 52.2233 29.4336 55.123Z" fill="#FEEED8"/>
<path d="M173.934 66.1231C173.298 61.1857 171.974 59.2758 165.934 59.1231C158.738 62.3374 155.339 62.8043 150.934 60.1231C142.412 54.4467 139.711 56.6039 135.934 63.1231C133.808 67.3684 131.771 68.8382 126.434 69.6231C125.069 69.8523 124.083 70.1594 123.434 70.6136C125.407 72.6114 127.25 74.0489 129.349 75.1231C132.424 76.6967 136.048 77.4905 141.434 78.1231C144.716 78.1058 147.297 77.8353 149.717 77.1231C150.01 80.9568 151.341 83.7481 154.434 89.1231C154.039 89.7724 153.627 90.2675 153.18 90.6231C151.382 92.0538 149.02 91.2292 144.934 89.1231C139.744 85.5687 136.697 83.4581 134.434 81.3979C132.441 79.5841 131.056 77.8094 129.349 75.1231C127.25 74.0489 125.407 72.6114 123.434 70.6136C122.061 71.5742 122.193 73.1927 123.434 76.1231C128.912 87.4463 133.927 91.4805 145.434 95.6231C146.824 95.9707 148.166 96.2407 149.434 96.4265C157.286 97.5767 162.337 95.4979 158.934 88.6231C156.061 84.8956 155.018 82.3715 155.434 76.1231C158.344 76.9517 160.479 76.726 164.434 76.1231C169.839 74.6265 172.729 73.5869 173.934 66.1231Z" fill="#FDB53F"/>
<path d="M141.434 78.1231C136.048 77.4905 132.424 76.6967 129.349 75.1231C131.056 77.8094 132.441 79.5841 134.434 81.3979C138.117 80.0192 140.202 80.4707 143.934 82.1231C145.589 79.1362 146.281 79.6782 147.434 81.3979C149.567 83.6708 150.848 85.9561 153.18 90.6231C153.627 90.2675 154.039 89.7724 154.434 89.1231C151.341 83.7481 150.01 80.9568 149.717 77.1231C147.297 77.8353 144.716 78.1058 141.434 78.1231Z" fill="#813F11"/>
<path d="M134.434 81.3979C136.697 83.4581 139.744 85.5687 144.934 89.1231C149.02 91.2292 151.382 92.0538 153.18 90.6231C150.848 85.9561 149.567 83.6708 147.434 81.3979C146.281 79.6782 145.589 79.1362 143.934 82.1231C140.202 80.4707 138.117 80.0192 134.434 81.3979Z" fill="#EB7951"/>
<path d="M226.434 83.6231C214.233 89.9326 207.531 90.8919 195.934 86.1231C195.479 87.4991 195.082 89.0544 194.735 90.6231C206.473 97.1323 213.99 96.4024 228.566 89.6231C228.16 87.7866 227.463 85.8636 226.434 83.6231Z" fill="#9C82BE"/>
<path d="M193.85 95.1231C193.45 97.3644 193.154 99.2416 192.934 100.123C205.633 107.784 213.271 108.151 227.934 101.123C228.525 98.6488 228.89 96.5686 228.984 94.6231C214.99 101.453 207.282 101.979 193.85 95.1231Z" fill="#9678B8"/>
<path d="M228.566 89.6231C213.99 96.4024 206.473 97.1323 194.735 90.6231C194.394 92.1624 194.102 93.7147 193.85 95.1231C207.282 101.979 214.99 101.453 228.984 94.6231C229.066 92.9111 228.938 91.3033 228.566 89.6231Z" fill="#FDF7EF"/>
<path d="M151.434 21.6231C119.02 21.3157 101.19 25.7846 69.9338 42.1231C67.3802 45.3783 65.8356 48.0404 65.1609 50.6231C99.9496 31.4621 120.494 26.2094 158.934 25.9908C157.238 24.4108 154.789 23.0605 151.434 21.6231Z" fill="#9B7DBE"/>
<path d="M64.9338 55.857C100.685 36.7079 121.932 31.4052 161.934 31.8309C161.599 29.4288 160.653 27.5919 158.934 25.9908C120.494 26.2094 99.9496 31.4621 65.1609 50.6231C64.7093 52.352 64.6475 54.0452 64.9338 55.857Z" fill="#FDF7EF"/>
<path d="M66.9338 62.123C101.19 41.3998 121.639 34.4848 161.934 36.6231C162.117 34.7947 162.127 33.2185 161.934 31.8309C121.932 31.4052 100.685 36.7079 64.9338 55.857C65.234 57.7563 65.9167 59.7858 66.9338 62.123Z" fill="#9678B8"/>
<path d="M35.9338 88.1231C22.4458 91.4212 15.7129 91.0337 6.93362 81.623C5.3935 83.5719 4.25902 85.3294 3.43384 87.0952C13.9992 95.8457 21.2994 96.768 36.1519 93.1231C36.1163 91.6207 36.0385 89.9816 35.9338 88.1231Z" fill="#9B7DBE"/>
<path d="M36.1519 93.1231C21.2994 96.768 13.9992 95.8457 3.43384 87.0952C2.53903 89.0099 2.0079 90.9344 1.71758 93.1231C13.0161 102.181 20.8763 102.098 36.0308 98.6231C36.1716 96.9022 36.1996 95.1351 36.1519 93.1231Z" fill="#FDF7EF"/>
<path d="M1.43362 100.123C11.8466 107.144 19.1543 108.063 35.3869 103.123C35.7022 101.571 35.9089 100.115 36.0308 98.6231C20.8763 102.098 13.0161 102.181 1.71758 93.1231C1.44747 95.1594 1.38581 97.4244 1.43362 100.123Z" fill="#9B7DBE"/>
<path d="M67.9338 206.623C64.5798 211.608 63.2075 211.297 61.4338 206.623C60.4761 207.007 59.6457 207.296 58.9338 207.456L54.4338 222.623C53.368 226.028 51.427 226.608 46.9338 226.623C36.3453 228.371 35.2496 229.882 31.4338 232.123C25.2083 238.615 26.1965 240.107 32.4338 240.623C34.8232 240.68 35.8952 240.882 36.4338 242.123C36.7085 246.788 39.9338 248.123 46.9338 246.123C53.9338 244.123 52.0669 243.557 55.4338 244.623C58.6208 247.414 60.5125 248.082 64.4338 244.623C66.5547 241.55 68.1131 240.798 70.9338 239.623C76.5892 236.531 75.7546 234.081 71.4338 230.123C67.3556 228.418 66.1314 227.135 67.9338 223.623L70.9338 211.532C69.618 211.669 68.6948 210.199 67.9338 206.623Z" fill="#F4922F"/>
<path d="M142.434 206.623C140.753 210.499 139.297 210.81 135.934 208.623C135.084 210.04 134.195 210.818 132.934 211.024L136.434 222.623C137.278 226.25 136.468 226.808 134.434 227.123C127.636 230.271 125.934 232.123 131.934 236.123C137.934 240.123 141.068 241.84 147.434 244.123C150.569 245.359 152.322 245.414 155.434 244.623C157.87 243.514 159.264 243.09 161.934 243.623C169.043 245.003 172.538 245.149 172.434 241.123C172.354 238.022 173.066 237.808 174.434 237.623C180.507 236.961 180.434 233.623 174.434 231.123C168.434 228.623 156.434 226.123 156.434 226.123C151.893 225.388 149.728 224.7 148.434 221.623L144.434 207.525C143.864 207.356 143.201 207.055 142.434 206.623Z" fill="#F4922F"/>
<path d="M135.934 208.623C139.297 210.81 140.753 210.499 142.434 206.623C143.201 207.055 143.864 207.356 144.434 207.525C147.443 208.417 147.869 205.635 147.434 199.023C142.02 202.936 135.452 206.355 127.434 209.895C129.916 210.836 131.625 211.238 132.934 211.024C134.195 210.818 135.084 210.04 135.934 208.623Z" fill="#D3C3AE"/>
<path d="M150.934 105.681C151.556 106.783 152.378 107.892 153.434 109.123C166.757 124.036 169.555 135.085 169.394 151.123C169.359 154.679 169.178 158.48 168.934 162.623C164.977 180.596 158.704 190.879 147.434 199.023C142.02 202.936 135.452 206.355 127.434 209.895C126.139 210.467 124.806 211.042 123.434 211.623C103.8 215.758 90.2652 215.55 73.4338 210.623C75.8708 209.335 76.8314 208.525 76.4338 206.623C74.0285 209.579 72.2768 211.392 70.9338 211.532C69.618 211.669 68.6948 210.199 67.9338 206.623C64.5798 211.608 63.2075 211.297 61.4338 206.623C60.4761 207.007 59.6457 207.296 58.9338 207.456C56.3975 208.025 55.3649 206.947 55.4338 202.623C47.6425 198.058 44.0944 195.249 41.4336 189.123C29.1466 180.641 26.896 177.48 32.4338 175.123C24.4574 162.654 24.0483 158.621 41.4336 164.623C46.139 160.392 48.3967 157.526 51.4336 151.123C25.4271 150.612 17.4423 145.342 6.93362 133.123C1.40822 124.016 -0.382042 117.447 1.43362 100.123M1.43362 100.123C11.8466 107.144 19.1543 108.063 35.3869 103.123M1.43362 100.123C1.38581 97.4244 1.44747 95.1594 1.71758 93.1231M37.9336 83.623C40.0558 82.3597 40.9176 81.5484 40.9338 79.6231C43.7831 79.6009 45.4292 78.6804 48.4336 75.623C52.6472 73.1833 53.2152 70.4149 49.9336 62.123C43.4454 53.8196 38.9849 52.2233 29.4336 55.123C18.4817 59.5575 13.9633 66.4726 6.93362 81.623M6.93362 81.623C15.7129 91.0337 22.4458 91.4212 35.9338 88.1231M1.71758 93.1231C2.0079 90.9344 2.53903 89.0099 3.43384 87.0952C4.25902 85.3294 5.3935 83.5719 6.93362 81.623M48.4336 75.623C49.0057 84.8696 46.7087 86.6239 37.9336 83.623M37.9336 83.623C31.0888 85.2328 27.5574 85.7437 27.9336 78.123M37.9336 83.623L35.9338 88.1231M36.0308 98.6231C36.1716 96.9022 36.1996 95.1351 36.1519 93.1231C36.1163 91.6206 36.0385 89.9816 35.9338 88.1231M79.4338 105.123C78.7702 104.485 78.1036 103.865 77.4338 103.265M36.0308 98.6231C35.9089 100.115 35.7022 101.571 35.3869 103.123C35.2553 103.77 35.1049 104.434 34.9338 105.123C51.4254 87.9527 64.9836 92.1137 77.4338 103.265M77.4338 103.265C81.0649 98.9475 79.9122 96.1904 76.4338 91.1231C68.8177 80.5954 66.8587 74.2211 66.9338 62.123M66.9338 62.123C101.19 41.3998 121.639 34.4848 161.934 36.6231M66.9338 62.123C65.9167 59.7858 65.234 57.7563 64.9338 55.857M69.9338 42.1231C78.0849 25.4367 85.1656 17.9827 108.934 13.1231C102.423 6.08533 102.592 3.51871 108.934 1.12309C114.232 0.526969 116.298 2.33692 118.434 9.12309C121.131 2.00571 122.745 -0.226502 125.934 1.12309C130.145 4.31597 129.797 6.71822 126.434 11.6231C136.466 10.9215 141.96 12.7889 151.434 21.6231M69.9338 42.1231C101.19 25.7846 119.02 21.3157 151.434 21.6231M69.9338 42.1231C67.3802 45.3783 65.8356 48.0404 65.1609 50.6231M161.934 31.8309C161.599 29.4288 160.653 27.5919 158.934 25.9908C157.238 24.4108 154.789 23.0605 151.434 21.6231M161.934 36.6231C165.605 46.6171 166.209 51.3874 165.934 59.1231M161.934 36.6231C162.117 34.7947 162.127 33.2185 161.934 31.8309M165.934 59.1231C171.974 59.2758 173.298 61.1857 173.934 66.1231C172.729 73.5869 169.839 74.6265 164.434 76.1231C160.479 76.726 158.344 76.9517 155.434 76.1231C155.018 82.3715 156.061 84.8956 158.934 88.6231C162.337 95.4979 157.286 97.5767 149.434 96.4265M149.434 96.4265C148.166 96.2407 146.824 95.9707 145.434 95.6231C133.927 91.4805 128.912 87.4463 123.434 76.1231C122.193 73.1927 122.061 71.5742 123.434 70.6136C124.083 70.1594 125.069 69.8523 126.434 69.6231C131.771 68.8383 133.808 67.3684 135.934 63.1231C139.711 56.6039 142.412 54.4467 150.934 60.1231C155.339 62.8043 158.738 62.3374 165.934 59.1231M149.434 96.4265C149.105 100.485 149.454 103.061 150.934 105.681M64.9338 55.857C100.685 36.7079 121.932 31.4052 161.934 31.8309M64.9338 55.857C64.6475 54.0452 64.7093 52.352 65.1609 50.6231M158.934 25.9908C120.494 26.2094 99.9496 31.4621 65.1609 50.6231M58.9338 207.456L54.4338 222.623C53.368 226.028 51.427 226.608 46.9338 226.623C36.3453 228.371 35.2496 229.882 31.4338 232.123C25.2083 238.615 26.1965 240.107 32.4338 240.623C34.8232 240.68 35.8952 240.882 36.4338 242.123C36.7085 246.788 39.9338 248.123 46.9338 246.123C53.9338 244.123 52.0669 243.557 55.4338 244.623C58.6208 247.414 60.5125 248.082 64.4338 244.623C66.5547 241.55 68.1131 240.798 70.9338 239.623C76.5893 236.531 75.7546 234.081 71.4338 230.123C67.3556 228.418 66.1314 227.135 67.9338 223.623L70.9338 211.532M127.434 209.895C129.916 210.836 131.625 211.238 132.934 211.024M132.934 211.024C134.195 210.818 135.084 210.04 135.934 208.623C139.297 210.81 140.753 210.499 142.434 206.623C143.201 207.055 143.864 207.356 144.434 207.525C147.443 208.416 147.869 205.635 147.434 199.023M132.934 211.024L136.434 222.623C137.278 226.25 136.468 226.808 134.434 227.123C127.636 230.271 125.934 232.123 131.934 236.123C137.934 240.123 141.068 241.84 147.434 244.123C150.569 245.359 152.322 245.414 155.434 244.623C157.87 243.514 159.264 243.09 161.934 243.623C169.043 245.003 172.538 245.149 172.434 241.123C172.354 238.022 173.066 237.808 174.434 237.623C180.507 236.961 180.434 233.623 174.434 231.123C168.434 228.623 156.434 226.123 156.434 226.123C151.893 225.388 149.728 224.7 148.434 221.623L144.434 207.525M3.43384 87.0952C13.9992 95.8457 21.2994 96.768 36.1519 93.1231M36.0308 98.6231C20.8763 102.098 13.0161 102.181 1.71758 93.1231M150.934 105.681C157.18 98.4079 161.519 95.632 172.434 95.6231C181.422 96.4856 185.878 98.5561 192.934 104.623C192.174 102.698 192.434 102.123 192.934 100.123M192.934 100.123C193.154 99.2416 193.45 97.3644 193.85 95.1231M192.934 100.123C205.633 107.784 213.271 108.151 227.934 101.123M193.85 95.1231C194.102 93.7146 194.394 92.1624 194.735 90.6231C195.082 89.0544 195.479 87.4991 195.934 86.1231C197.104 83.3073 196.299 82.4523 191.434 82.6231C183.817 82.1078 182.63 79.7606 183.434 73.6231M195.934 86.1231C207.531 90.8919 214.233 89.9326 226.434 83.6231M183.434 73.6231C180.1 65.5944 180.657 61.6084 186.934 55.6231C193.446 50.3945 197.354 49.4743 204.934 52.6231C213.276 57.2428 217.007 60.8367 221.434 69.6231C224.436 75.2104 225.776 78.3037 226.434 83.6231M183.434 73.6231C186.304 75.9421 188.082 76.351 191.434 76.1231C193.933 82.7832 196.506 83.6977 202.434 82.1231C206.452 79.5847 205.934 77.1231 201.934 76.1231M228.984 94.6231C229.066 92.9111 228.938 91.3033 228.566 89.6231C228.16 87.7866 227.463 85.8636 226.434 83.6231M227.934 101.123C227.56 121.219 223.479 128.775 212.934 139.123C198.752 150.155 188.999 152.288 169.394 151.123M227.934 101.123C228.525 98.6488 228.89 96.5686 228.984 94.6231M194.735 90.6231C206.473 97.1323 213.99 96.4024 228.566 89.6231M193.85 95.1231C207.282 101.979 214.99 101.453 228.984 94.6231M149.717 77.1231C147.297 77.8353 144.716 78.1058 141.434 78.1231C136.048 77.4905 132.424 76.6968 129.349 75.1231C127.25 74.0489 125.407 72.6114 123.434 70.6136M168.434 68.6231C164.265 67.7896 162.237 68.8126 158.934 72.1231C155.435 74.6961 152.699 76.2452 149.717 77.1231M153.18 90.6231C151.382 92.0538 149.02 91.2292 144.934 89.1231C139.744 85.5687 136.697 83.4581 134.434 81.3979C132.441 79.5841 131.056 77.8094 129.349 75.1231M149.717 77.1231C150.01 80.9568 151.341 83.7481 154.434 89.1231C154.039 89.7724 153.627 90.2675 153.18 90.6231M134.434 81.3979C138.117 80.0192 140.202 80.4707 143.934 82.1231C145.589 79.1362 146.281 79.6782 147.434 81.3979C149.567 83.6708 150.848 85.9561 153.18 90.6231" stroke="#372E1E" stroke-width="1.5" stroke-linecap="round"/>
<ellipse cx="143.327" cy="64.7178" rx="2" ry="1.5" transform="rotate(20.048 143.327 64.7178)" fill="#21210A"/>
<ellipse cx="103.934" cy="72.623" rx="8" ry="6" fill="#FCBB91"/>
<path d="M108.434 64.623C108.434 52.1229 119.434 53.1229 121.934 62.123M150.934 57.123C149.934 47.6229 157.934 45.6229 160.434 55.623" stroke="#372E1E" stroke-width="3" stroke-linecap="round"/>
<path d="M190.934 63.123C186.409 66.2234 185.538 68.3004 186.934 72.623M197.934 66.623C192.875 69.5152 191.652 71.2579 192.934 74.623" stroke="#D99B64" stroke-width="1.5" stroke-linecap="round"/>
<path d="M196.934 112.623C196.812 109.528 195.434 106.623 193.434 106.623M36.4338 68.123C40.3294 71.1548 40.4898 73.2737 40.4338 77.123M43.9338 65.123C46.8828 69.7517 47.1228 72.0313 45.4338 75.623M83.4338 111.623C82.5741 109.321 81.9661 108.171 80.4338 106.623M29.9338 114.123C30.1573 110.667 30.7922 109.117 32.9338 107.123M36.4338 131.623C42.7299 135.85 47.2633 135.936 56.4338 133.623M38.4338 178.623C36.6736 178.042 35.6867 177.572 33.9338 176.123M171.934 133.623C178.611 136.186 182.336 136.127 188.934 132.123" stroke="#D99B64" stroke-width="1.5" stroke-linecap="round"/>
<path d="M35.9338 235.623C38.8575 233.6 40.5969 232.794 43.9338 232.123M41.4338 243.623C45.6601 238.518 49.1601 236.082 56.4338 232.123M146.934 232.123C152.17 235.574 153.986 237.751 154.934 242.123M156.934 232.123C162.669 232.844 165.16 234.503 168.934 238.623" stroke="#E78024" stroke-width="1.5" stroke-linecap="round"/>
</svg>
